<svg width="101" height="28" viewBox="0 0 101 28" fill="" xmlns="http://www.w3.org/2000/svg">
<rect width="100.8" height="28" rx="14" fill="#D7D7D7"/>
<path d="M24.026 7.5V13.996H22.64V11.252H20.218C20.078 11.9893 19.6813 12.582 19.028 13.03C18.384 13.4687 17.5673 13.688 16.578 13.688C15.8313 13.688 15.178 13.562 14.618 13.31C14.0673 13.0487 13.6427 12.6893 13.344 12.232C13.0453 11.7747 12.896 11.252 12.896 10.664C12.896 10.076 13.0453 9.55333 13.344 9.096C13.6427 8.63867 14.0673 8.284 14.618 8.032C15.178 7.77067 15.8313 7.64 16.578 7.64C17.5393 7.64 18.3373 7.85 18.972 8.27C19.616 8.69 20.022 9.25467 20.19 9.964H22.64V7.5H24.026ZM16.578 12.526C17.2687 12.526 17.824 12.3627 18.244 12.036C18.6733 11.7 18.888 11.2427 18.888 10.664C18.888 10.0853 18.6733 9.63267 18.244 9.306C17.824 8.97 17.2687 8.802 16.578 8.802C15.8873 8.802 15.3273 8.97 14.898 9.306C14.478 9.63267 14.268 10.0853 14.268 10.664C14.268 11.2427 14.478 11.7 14.898 12.036C15.3273 12.3627 15.8873 12.526 16.578 12.526ZM13.988 14.654H24.026V19.302H13.988V14.654ZM15.374 18.126H22.64V15.83H15.374V18.126ZM30.3248 12.05C29.8955 12.6847 29.3495 13.2073 28.6868 13.618C28.0335 14.0287 27.2961 14.276 26.4748 14.36V13.156C27.3708 13.0253 28.1081 12.652 28.6868 12.036C29.2655 11.4107 29.6201 10.6593 29.7508 9.782H26.6008V8.62H29.7648V7.29H31.1648V8.62H34.2868V9.782H31.1648C31.1088 10.202 31.0108 10.5987 30.8708 10.972L34.4968 13.226L33.8388 14.262L30.3248 12.05ZM36.1068 10.398V7.5H37.4928V14.626H36.1068V11.63H33.8108V10.398H36.1068ZM32.4388 15.004C34.0161 15.004 35.2761 15.1813 36.2188 15.536C37.1615 15.8813 37.6328 16.446 37.6328 17.23C37.6328 18.0047 37.1615 18.5693 36.2188 18.924C35.2761 19.2787 34.0161 19.456 32.4388 19.456C30.8615 19.456 29.6015 19.2787 28.6588 18.924C27.7161 18.5693 27.2448 18.0047 27.2448 17.23C27.2448 16.446 27.7161 15.8813 28.6588 15.536C29.6015 15.1813 30.8615 15.004 32.4388 15.004ZM32.4388 18.35C33.5588 18.35 34.4595 18.2567 35.1408 18.07C35.8221 17.8927 36.1628 17.6127 36.1628 17.23C36.1628 16.8473 35.8221 16.5673 35.1408 16.39C34.4595 16.2033 33.5588 16.11 32.4388 16.11C31.3188 16.11 30.4181 16.2033 29.7368 16.39C29.0555 16.5673 28.7148 16.8473 28.7148 17.23C28.7148 17.6127 29.0555 17.8927 29.7368 18.07C30.4181 18.2567 31.3188 18.35 32.4388 18.35ZM53.3154 11.672H44.4534V10.51H53.3154V8.774H44.4534V7.612H54.7014V13.058H53.3154V11.672ZM55.5694 13.8V14.976H43.6274V13.8H55.5694ZM45.8674 18.14H54.9534V19.316H44.4534V16.026H45.8674V18.14ZM73.52 13.674H71.84V19.456H70.454V7.5H71.84V12.344H73.52V13.674ZM66.324 17.454C66.8934 17.454 67.458 17.4073 68.018 17.314C68.5874 17.2113 69.054 17.076 69.418 16.908V18.168C69.0634 18.3453 68.6014 18.4853 68.032 18.588C67.4627 18.6907 66.884 18.742 66.296 18.742H61.578V7.864H62.992V17.454H66.324ZM85.5868 13.646H75.3108V7.85H85.5868V13.646ZM84.2008 9.138H76.6968V12.372H84.2008V9.138ZM86.4268 16.404H81.1628V19.736H79.7348V16.404H74.4848V15.088H86.4268V16.404Z" fill="black"/>
</svg>
