<?xml version="1.0" ?><svg width="500px" height="500px" viewBox="0 -12.75 500 500" xmlns="http://www.w3.org/2000/svg"><defs><style>.cls-1{fill:#62626a;}.cls-2{fill:#ff9e9d;}.cls-3{fill:#fff;stroke:#62626a;stroke-miterlimit:10;stroke-width:9px;}</style></defs><title/><g data-name="Layer 2" id="Layer_2"><g data-name="Layer 1" id="Layer_1-2"><path class="cls-1" d="M500,250A250.28,250.28,0,0,1,368.85,470H131.15A250,250,0,1,1,500,250Z"/><path class="cls-2" d="M315.24,40.17C304.61,44.49,294.61,53,289.5,56.05c-10.14,6.07-18.61-14.25-15.88-25.75a21.39,21.39,0,0,1,25.74-15.88C310.86,17.15,326.18,35.72,315.24,40.17Z"/><path class="cls-2" d="M289.69,77.37l-.51-.43a30,30,0,0,0-47.62-30.6A18.5,18.5,0,0,1,230.07,50H230a30,30,0,0,0-30,30v0a2.39,2.39,0,0,1-1.46,2.25,30,30,0,1,0,34.52,46.91A29.93,29.93,0,0,0,255,126a29.85,29.85,0,0,0,12.55,3.91,30,30,0,1,0,29-49.17A15.45,15.45,0,0,1,289.69,77.37Z"/><circle class="cls-3" cx="315" cy="175" r="15"/><circle class="cls-3" cx="185" cy="175" r="15"/><path class="cls-3" d="M357.61,281.51l-17.25-3.45-36.18-7.23q-12-2.4-24.18-3.7V220H220v47.13q-12.15,1.32-24.18,3.7l-33.3,6.66-20.13,4A52.75,52.75,0,0,0,100,333.23V470H400V333.23A52.75,52.75,0,0,0,357.61,281.51Z"/><path class="cls-3" d="M303.82,270.83q-12-2.4-24.18-3.7V230h-60v37.13q-12.15,1.32-24.18,3.7l-33.3,6.66a54.57,54.57,0,0,0,53.55,44h70.86A54.55,54.55,0,0,0,340,278.06Z"/><path class="cls-3" d="M310,130v60a60,60,0,0,1-60,60h0a60,60,0,0,1-60-60V130"/><circle class="cls-1" cx="275" cy="165" r="5"/><circle class="cls-1" cx="225" cy="165" r="5"/><path class="cls-3" d="M270,200h0a20,20,0,0,1-40,0"/><path class="cls-3" d="M170,350v31.42A47.9,47.9,0,0,0,170,440v30"/><rect class="cls-3" height="20" width="140" x="180" y="120"/><rect class="cls-1" height="39.44" transform="translate(63.39 230.63) rotate(-50)" width="12.16" x="272.93" y="27.61"/><rect class="cls-1" height="30" width="70" x="330" y="360"/><rect class="cls-1" height="70" width="30" x="370" y="340"/><rect class="cls-2" height="50" width="20" x="380" y="350"/><path class="cls-3" d="M330,350v31.42A47.9,47.9,0,0,1,330,440v30"/></g></g></svg>