<svg width="500" height="500" viewBox="0 0 500 500" fill="none" xmlns="http://www.w3.org/2000/svg">
<rect width="500" height="500" fill="white"/>
<path d="M20.1271 40.0781L24.0825 38.76L24.7856 39.0825C26.3875 39.9031 28.1259 40.3134 30.0009 40.3134C33.1846 40.2159 35.8359 39.1759 37.9546 37.1934C40.0734 35.2109 41.1721 32.8134 41.2509 30.0009C41.1728 27.1884 40.074 24.7909 37.9546 22.8084C35.8353 20.8259 33.184 19.7859 30.0009 19.6884C26.8171 19.7859 24.1659 20.8259 22.0471 22.8084C19.9284 24.7909 18.8296 27.1884 18.7509 30.0009C18.7509 31.0165 18.9268 32.0225 19.2787 33.0187C19.6306 34.015 20.1481 34.9525 20.8312 35.8312L21.4762 36.6806L20.1271 40.0781ZM18.779 42.4809C18.4078 42.5984 18.0903 42.5153 17.8265 42.2315C17.5628 41.9478 17.4993 41.6206 17.6362 41.25L19.3359 36.9721C18.5546 35.9371 17.949 34.8287 17.519 33.6468C17.089 32.465 16.874 31.249 16.874 29.999C16.9521 26.7765 18.2021 23.969 20.624 21.5765C23.0459 19.184 26.1709 17.929 29.999 17.8115C33.8271 17.929 36.9521 19.184 39.374 21.5765C41.7959 23.969 43.0459 26.7765 43.124 29.999C43.0459 33.2215 41.7959 36.029 39.374 38.4215C36.9521 40.814 33.8271 42.069 29.999 42.1865C27.8703 42.1865 25.8487 41.7178 23.9343 40.7803L18.779 42.4809ZM30 31.4943C29.7262 31.4943 29.4771 31.4309 29.2528 31.304C29.0284 31.1771 28.8478 30.9915 28.7109 30.7471C28.574 30.5028 28.5056 30.2537 28.5056 30C28.5056 29.7462 28.574 29.4971 28.7109 29.2528C28.8478 29.0084 29.0284 28.8228 29.2528 28.6959C29.4771 28.569 29.7262 28.5056 30 28.5056C30.43 28.5056 30.7865 28.6471 31.0696 28.9303C31.3528 29.2134 31.4943 29.57 31.4943 30C31.4943 30.43 31.3528 30.7865 31.0696 31.0696C30.7865 31.3528 30.43 31.4943 30 31.4943V31.4943ZM35.625 31.4943C35.3512 31.4943 35.1021 31.4309 34.8778 31.304C34.6534 31.1771 34.4728 30.9915 34.3359 30.7471C34.199 30.5028 34.1306 30.2537 34.1306 30C34.1306 29.7462 34.199 29.4971 34.3359 29.2528C34.4728 29.0084 34.6534 28.8228 34.8778 28.6959C35.1021 28.569 35.3512 28.5056 35.625 28.5056C36.055 28.5056 36.4115 28.6471 36.6946 28.9303C36.9778 29.2134 37.1193 29.57 37.1193 30C37.1193 30.43 36.9778 30.7865 36.6946 31.0696C36.4115 31.3528 36.055 31.4943 35.625 31.4943V31.4943ZM24.375 31.4943C24.1012 31.4943 23.8521 31.4309 23.6278 31.304C23.4034 31.1771 23.2228 30.9915 23.0859 30.7471C22.949 30.5028 22.8806 30.2537 22.8806 30C22.8806 29.7462 22.949 29.4971 23.0859 29.2528C23.2228 29.0084 23.4034 28.8228 23.6278 28.6959C23.8521 28.569 24.1012 28.5056 24.375 28.5056C24.805 28.5056 25.1615 28.6471 25.4446 28.9303C25.7278 29.2134 25.8693 29.57 25.8693 30C25.8693 30.43 25.7278 30.7865 25.4446 31.0696C25.1615 31.3528 24.805 31.4943 24.375 31.4943V31.4943Z" fill="#08080A" fill-opacity="0.96"/>
<circle cx="30" cy="30" r="30" fill="#48EC9D" fill-opacity="0.2"/>
<path d="M110 30C111.602 29.9606 112.93 29.4138 113.984 28.3594C115.039 27.305 115.586 25.9769 115.625 24.375C115.586 22.7731 115.039 21.445 113.984 20.3906C112.93 19.3362 111.602 18.7894 110 18.75C108.398 18.7894 107.07 19.3362 106.016 20.3906C104.961 21.445 104.414 22.7731 104.375 24.375C104.414 25.9769 104.961 27.305 106.016 28.3594C107.07 29.4138 108.398 29.9606 110 30ZM110 31.875C107.871 31.8162 106.104 31.0838 104.697 29.6775C103.291 28.2713 102.559 26.5037 102.5 24.375C102.559 22.2463 103.291 20.4787 104.697 19.0725C106.104 17.6662 107.871 16.9338 110 16.875C112.129 16.9338 113.896 17.6662 115.303 19.0725C116.709 20.4787 117.441 22.2463 117.5 24.375C117.441 26.5037 116.709 28.2713 115.303 29.6775C113.896 31.0838 112.129 31.8162 110 31.875ZM110 30C110.274 30 110.498 30.0878 110.674 30.2634C110.85 30.4391 110.938 30.6638 110.938 30.9375V38.4375C110.938 38.7112 110.85 38.9359 110.674 39.1116C110.498 39.2872 110.274 39.375 110 39.375C109.726 39.375 109.502 39.2872 109.326 39.1116C109.15 38.9359 109.062 38.7112 109.062 38.4375V30.9375C109.062 30.6638 109.15 30.4391 109.326 30.2634C109.502 30.0878 109.726 30 110 30V30ZM106.25 34.0134V35.9175C104.551 36.2106 103.193 36.5962 102.178 37.0744C101.162 37.5525 100.644 38.0066 100.625 38.4366C100.684 39.0422 101.587 39.6525 103.335 40.2675C105.083 40.8825 107.305 41.2097 110 41.2491C112.696 41.2097 114.917 40.8825 116.665 40.2675C118.412 39.6525 119.316 39.0422 119.375 38.4366C119.356 38.0066 118.838 37.5525 117.822 37.0744C116.807 36.5962 115.449 36.2106 113.75 35.9175V34.0134C115.977 34.3453 117.774 34.9069 119.141 35.6981C120.507 36.4894 121.211 37.4025 121.25 38.4375C121.172 39.7656 120.073 40.8691 117.954 41.7478C115.834 42.6266 113.183 43.0856 110 43.125C106.816 43.0856 104.165 42.6266 102.046 41.7478C99.9275 40.8691 98.8287 39.7656 98.75 38.4375C98.7894 37.4025 99.4925 36.4894 100.859 35.6981C102.226 34.9069 104.023 34.3453 106.25 34.0134Z" fill="#08080A" fill-opacity="0.96"/>
<circle cx="110" cy="30" r="30" fill="#8DFF33" fill-opacity="0.2"/>
<path d="M178.75 26.25V39.375H201.25V26.25H178.75ZM177.812 24.375H202.188C202.461 24.375 202.686 24.4628 202.862 24.6384C203.037 24.8141 203.125 25.0388 203.125 25.3125V40.3125C203.125 40.5862 203.037 40.8109 202.862 40.9866C202.686 41.1622 202.461 41.25 202.188 41.25H177.812C177.539 41.25 177.314 41.1622 177.138 40.9866C176.963 40.8109 176.875 40.5862 176.875 40.3125V25.3125C176.875 25.0388 176.963 24.8141 177.138 24.6384C177.314 24.4628 177.539 24.375 177.812 24.375ZM179.688 20.625H200.312V22.5H179.688V20.625ZM182.5 16.875H197.5V18.75H182.5V16.875Z" fill="#08080A" fill-opacity="0.96"/>
<circle cx="190" cy="30" r="30" fill="#F76D6D" fill-opacity="0.2"/>
<path d="M265.518 37.5H259.688C259.414 37.5 259.189 37.4122 259.013 37.2366C258.838 37.0609 258.75 36.8363 258.75 36.5625V20.625H256.875C256.601 20.625 256.377 20.5372 256.201 20.3616C256.025 20.1859 255.938 19.9613 255.938 19.6875C255.938 19.4137 256.025 19.1891 256.201 19.0134C256.377 18.8378 256.601 18.75 256.875 18.75H283.125C283.399 18.75 283.623 18.8378 283.799 19.0134C283.975 19.1891 284.062 19.4137 284.062 19.6875C284.062 19.9613 283.975 20.1859 283.799 20.3616C283.623 20.5372 283.399 20.625 283.125 20.625H281.25V36.5625C281.25 36.8363 281.162 37.0609 280.987 37.2366C280.811 37.4122 280.586 37.5 280.312 37.5H274.482L277.734 43.125H275.566L272.314 37.5H267.684L264.432 43.125H262.264L265.518 37.5ZM279.375 20.625H260.625V35.625H279.375V20.625ZM265.049 30.6741C264.853 30.8497 264.629 30.9375 264.375 30.9375C264.121 30.9375 263.902 30.8447 263.716 30.6591C263.53 30.4734 263.438 30.2537 263.438 30C263.438 29.7463 263.525 29.5216 263.701 29.3259L268.037 25.0191L271.699 27.7734L274.892 23.7891C275.126 23.4959 275.424 23.3738 275.785 23.4225C276.147 23.4713 276.391 23.6666 276.517 24.0084C276.644 24.3503 276.591 24.6678 276.356 24.9609L272.049 30.3516L268.211 27.48L265.049 30.6741Z" fill="#08080A" fill-opacity="0.96"/>
<circle cx="270" cy="30" r="30" fill="#4857EC" fill-opacity="0.2"/>
<circle cx="27" cy="107" r="27" fill="#BCFF87" fill-opacity="0.5"/>
<path d="M39.8414 112.334C40.5636 110.72 40.9353 108.99 40.9353 107.242C40.9353 103.713 39.4212 100.328 36.7261 97.833C34.0311 95.3375 30.3757 93.9355 26.5643 93.9355C22.7529 93.9355 19.0976 95.3375 16.4025 97.833C13.7074 100.328 12.1934 103.713 12.1934 107.242C12.1934 108.99 12.5651 110.72 13.2873 112.334C14.0095 113.949 15.0681 115.416 16.4025 116.651C17.737 117.887 19.3212 118.867 21.0648 119.536C22.8084 120.205 24.6771 120.549 26.5643 120.549C28.4515 120.549 30.3203 120.205 32.0639 119.536C33.8074 118.867 35.3917 117.887 36.7261 116.651C38.0606 115.416 39.1192 113.949 39.8414 112.334Z" fill="#E8FFD6"/>
<path d="M31.08 111.423C29.8822 112.532 28.258 113.155 26.5643 113.155C24.8707 113.155 23.2464 112.532 22.0486 111.423M21.774 104.285H21.79M31.3547 104.285H31.3706M40.9353 107.242C40.9353 108.99 40.5636 110.72 39.8414 112.334C39.1192 113.949 38.0606 115.416 36.7261 116.651C35.3917 117.887 33.8074 118.867 32.0639 119.536C30.3203 120.205 28.4515 120.549 26.5643 120.549C24.6771 120.549 22.8084 120.205 21.0648 119.536C19.3212 118.867 17.737 117.887 16.4025 116.651C15.0681 115.416 14.0095 113.949 13.2873 112.334C12.5651 110.72 12.1934 108.99 12.1934 107.242C12.1934 103.713 13.7074 100.328 16.4025 97.833C19.0976 95.3375 22.7529 93.9355 26.5643 93.9355C30.3757 93.9355 34.0311 95.3375 36.7261 97.833C39.4212 100.328 40.9353 103.713 40.9353 107.242Z" stroke="#6AAF35" stroke-width="3" stroke-linecap="round" stroke-linejoin="round"/>
<circle cx="107" cy="107" r="27" fill="#4857EC" fill-opacity="0.1"/>
<path d="M111.08 111.423C109.882 112.532 108.258 113.155 106.564 113.155C104.871 113.155 103.246 112.532 102.049 111.423M101.774 104.285H101.79M111.355 104.285H111.371M120.935 107.242C120.935 108.99 120.564 110.72 119.841 112.334C119.119 113.949 118.061 115.416 116.726 116.651C115.392 117.887 113.807 118.867 112.064 119.536C110.32 120.205 108.452 120.549 106.564 120.549C104.677 120.549 102.808 120.205 101.065 119.536C99.3212 118.867 97.737 117.887 96.4025 116.651C95.0681 115.416 94.0095 113.949 93.2873 112.334C92.5651 110.72 92.1934 108.99 92.1934 107.242C92.1934 103.713 93.7074 100.328 96.4025 97.833C99.0976 95.3375 102.753 93.9355 106.564 93.9355C110.376 93.9355 114.031 95.3375 116.726 97.833C119.421 100.328 120.935 103.713 120.935 107.242Z" stroke="#4857EC" stroke-width="3" stroke-linecap="round" stroke-linejoin="round"/>
<circle cx="187" cy="107" r="27" fill="#FFD6D6" fill-opacity="0.5"/>
<path d="M191.08 111.423C189.882 112.532 188.258 113.155 186.564 113.155C184.871 113.155 183.246 112.532 182.049 111.423M181.774 104.285H181.79M191.355 104.285H191.371M200.935 107.242C200.935 108.99 200.564 110.72 199.841 112.334C199.119 113.949 198.061 115.416 196.726 116.651C195.392 117.887 193.807 118.867 192.064 119.536C190.32 120.205 188.452 120.549 186.564 120.549C184.677 120.549 182.808 120.205 181.065 119.536C179.321 118.867 177.737 117.887 176.403 116.651C175.068 115.416 174.009 113.949 173.287 112.334C172.565 110.72 172.193 108.99 172.193 107.242C172.193 103.713 173.707 100.328 176.403 97.833C179.098 95.3375 182.753 93.9355 186.564 93.9355C190.376 93.9355 194.031 95.3375 196.726 97.833C199.421 100.328 200.935 103.713 200.935 107.242Z" stroke="#C66464" stroke-width="3" stroke-linecap="round" stroke-linejoin="round"/>
<path d="M190.641 160.537C190.39 159.821 189.296 159.821 189.044 160.537L187.768 164.172C187.713 164.328 187.606 164.464 187.463 164.561C187.319 164.657 187.146 164.709 186.969 164.709H182.842C182.029 164.709 181.689 165.673 182.348 166.117L185.687 168.363C185.831 168.459 185.938 168.595 185.992 168.752C186.047 168.908 186.047 169.076 185.992 169.232L184.717 172.867C184.465 173.584 185.351 174.18 186.009 173.737L189.349 171.491C189.492 171.394 189.665 171.342 189.842 171.342C190.02 171.342 190.193 171.394 190.336 171.491L193.676 173.737C194.334 174.18 195.22 173.584 194.968 172.867L193.693 169.232C193.638 169.076 193.638 168.908 193.693 168.752C193.747 168.595 193.854 168.459 193.998 168.363L197.337 166.117C197.995 165.673 197.657 164.709 196.843 164.709H192.715C192.538 164.709 192.365 164.657 192.222 164.56C192.079 164.464 191.972 164.328 191.917 164.172L190.641 160.537Z" stroke="#F9C94E" stroke-linecap="round" stroke-linejoin="round"/>
<path d="M168.641 160.537C168.39 159.821 167.296 159.821 167.044 160.537L165.768 164.172C165.713 164.328 165.606 164.464 165.463 164.561C165.319 164.657 165.146 164.709 164.969 164.709H160.842C160.029 164.709 159.689 165.673 160.348 166.117L163.687 168.363C163.831 168.459 163.938 168.595 163.992 168.752C164.047 168.908 164.047 169.076 163.992 169.232L162.717 172.867C162.465 173.584 163.351 174.18 164.009 173.737L167.349 171.491C167.492 171.394 167.665 171.342 167.842 171.342C168.02 171.342 168.193 171.394 168.336 171.491L171.676 173.737C172.334 174.18 173.22 173.584 172.968 172.867L171.693 169.232C171.638 169.076 171.638 168.908 171.693 168.752C171.747 168.595 171.854 168.459 171.998 168.363L175.337 166.117C175.995 165.673 175.657 164.709 174.843 164.709H170.715C170.538 164.709 170.365 164.657 170.222 164.56C170.079 164.464 169.972 164.328 169.917 164.172L168.641 160.537Z" fill="#F9C94E"/>
<g clip-path="url(#clip0_866_10831)">
<path d="M20 170C20 164.477 15.5229 160 10 160C4.47715 160 0 164.477 0 170C0 174.991 3.65684 179.128 8.4375 179.879V172.891H5.89844V170H8.4375V167.797C8.4375 165.291 9.93047 163.906 12.2146 163.906C13.3084 163.906 14.4531 164.102 14.4531 164.102V166.563H13.1922C11.95 166.563 11.5625 167.333 11.5625 168.125V170H14.3359L13.8926 172.891H11.5625V179.879C16.3432 179.128 20 174.991 20 170Z" fill="black"/>
</g>
<g clip-path="url(#clip1_866_10831)">
<path d="M40 161.801C42.6719 161.801 42.9883 161.812 44.0391 161.859C45.0156 161.902 45.543 162.066 45.8945 162.203C46.3594 162.383 46.6953 162.602 47.043 162.949C47.3945 163.301 47.6094 163.633 47.7891 164.098C47.9258 164.449 48.0898 164.98 48.1328 165.953C48.1797 167.008 48.1914 167.324 48.1914 169.992C48.1914 172.664 48.1797 172.98 48.1328 174.031C48.0898 175.008 47.9258 175.535 47.7891 175.887C47.6094 176.352 47.3906 176.688 47.043 177.035C46.6914 177.387 46.3594 177.602 45.8945 177.781C45.543 177.918 45.0117 178.082 44.0391 178.125C42.9844 178.172 42.668 178.184 40 178.184C37.3281 178.184 37.0117 178.172 35.9609 178.125C34.9844 178.082 34.457 177.918 34.1055 177.781C33.6406 177.602 33.3047 177.383 32.957 177.035C32.6055 176.684 32.3906 176.352 32.2109 175.887C32.0742 175.535 31.9102 175.004 31.8672 174.031C31.8203 172.977 31.8086 172.66 31.8086 169.992C31.8086 167.32 31.8203 167.004 31.8672 165.953C31.9102 164.977 32.0742 164.449 32.2109 164.098C32.3906 163.633 32.6094 163.297 32.957 162.949C33.3086 162.598 33.6406 162.383 34.1055 162.203C34.457 162.066 34.9883 161.902 35.9609 161.859C37.0117 161.812 37.3281 161.801 40 161.801ZM40 160C37.2852 160 36.9453 160.012 35.8789 160.059C34.8164 160.105 34.0859 160.277 33.4531 160.523C32.793 160.781 32.2344 161.121 31.6797 161.68C31.1211 162.234 30.7813 162.793 30.5234 163.449C30.2773 164.086 30.1055 164.812 30.0586 165.875C30.0117 166.945 30 167.285 30 170C30 172.715 30.0117 173.055 30.0586 174.121C30.1055 175.184 30.2773 175.914 30.5234 176.547C30.7813 177.207 31.1211 177.766 31.6797 178.32C32.2344 178.875 32.793 179.219 33.4492 179.473C34.0859 179.719 34.8125 179.891 35.875 179.938C36.9414 179.984 37.2813 179.996 39.9961 179.996C42.7109 179.996 43.0508 179.984 44.1172 179.938C45.1797 179.891 45.9102 179.719 46.543 179.473C47.1992 179.219 47.7578 178.875 48.3125 178.32C48.8672 177.766 49.2109 177.207 49.4648 176.551C49.7109 175.914 49.8828 175.188 49.9297 174.125C49.9766 173.059 49.9883 172.719 49.9883 170.004C49.9883 167.289 49.9766 166.949 49.9297 165.883C49.8828 164.82 49.7109 164.09 49.4648 163.457C49.2188 162.793 48.8789 162.234 48.3203 161.68C47.7656 161.125 47.207 160.781 46.5508 160.527C45.9141 160.281 45.1875 160.109 44.125 160.063C43.0547 160.012 42.7148 160 40 160Z" fill="black"/>
<path d="M40 164.863C37.1641 164.863 34.8633 167.164 34.8633 170C34.8633 172.836 37.1641 175.137 40 175.137C42.8359 175.137 45.1367 172.836 45.1367 170C45.1367 167.164 42.8359 164.863 40 164.863ZM40 173.332C38.1602 173.332 36.668 171.84 36.668 170C36.668 168.16 38.1602 166.668 40 166.668C41.8398 166.668 43.332 168.16 43.332 170C43.332 171.84 41.8398 173.332 40 173.332Z" fill="black"/>
<path d="M46.5391 164.66C46.5391 165.324 46 165.859 45.3398 165.859C44.6758 165.859 44.1406 165.32 44.1406 164.66C44.1406 163.996 44.6797 163.461 45.3398 163.461C46 163.461 46.5391 164 46.5391 164.66Z" fill="black"/>
</g>
<g clip-path="url(#clip2_866_10831)">
<path d="M79.6014 165.155C79.4883 164.729 79.2654 164.341 78.9551 164.028C78.6448 163.716 78.2579 163.491 77.8332 163.375C76.2695 162.955 70.0195 162.955 70.0195 162.955C70.0195 162.955 63.7695 162.955 62.2059 163.375C61.7811 163.491 61.3942 163.716 61.0839 164.028C60.7736 164.341 60.5508 164.729 60.4377 165.155C60.0195 166.725 60.0195 170 60.0195 170C60.0195 170 60.0195 173.275 60.4377 174.845C60.5508 175.271 60.7736 175.659 61.0839 175.972C61.3942 176.284 61.7811 176.509 62.2059 176.625C63.7695 177.045 70.0195 177.045 70.0195 177.045C70.0195 177.045 76.2695 177.045 77.8332 176.625C78.2579 176.509 78.6448 176.284 78.9551 175.972C79.2654 175.659 79.4883 175.271 79.6014 174.845C80.0195 173.275 80.0195 170 80.0195 170C80.0195 170 80.0195 166.725 79.6014 165.155Z" fill="black"/>
<path d="M67.9746 172.974V167.026L73.2019 170L67.9746 172.974Z" fill="#FEFEFE"/>
</g>
<g clip-path="url(#clip3_866_10831)">
<path fill-rule="evenodd" clip-rule="evenodd" d="M100 160.417C97.6264 160.418 95.3303 161.259 93.5225 162.789C91.7148 164.319 90.5134 166.438 90.1331 168.768C89.7528 171.098 90.2184 173.487 91.4467 175.507C92.675 177.527 94.5858 179.046 96.8376 179.794C97.3344 179.886 97.5215 179.578 97.5215 179.317C97.5215 179.055 97.5115 178.296 97.5082 177.466C94.7263 178.067 94.1385 176.292 94.1385 176.292C93.6847 175.139 93.029 174.836 93.029 174.836C92.1216 174.221 93.0969 174.232 93.0969 174.232C94.102 174.303 94.6303 175.258 94.6303 175.258C95.5211 176.778 96.9701 176.338 97.5397 176.081C97.6291 175.437 97.8891 174.999 98.1756 174.751C95.9533 174.501 93.6185 173.648 93.6185 169.838C93.6047 168.85 93.9735 167.894 94.6485 167.169C94.5458 166.918 94.203 165.908 94.7462 164.534C94.7462 164.534 95.5857 164.268 97.4966 165.554C99.1357 165.108 100.865 165.108 102.504 165.554C104.413 164.268 105.251 164.534 105.251 164.534C105.796 165.904 105.453 166.915 105.351 167.169C106.028 167.894 106.397 168.851 106.382 169.841C106.382 173.659 104.042 174.501 101.817 174.746C102.175 175.055 102.494 175.66 102.494 176.588C102.494 177.919 102.483 178.989 102.483 179.317C102.483 179.582 102.663 179.891 103.17 179.794C105.422 179.046 107.333 177.526 108.561 175.506C109.789 173.486 110.255 171.097 109.874 168.767C109.493 166.436 108.291 164.317 106.483 162.787C104.675 161.257 102.378 160.417 100.004 160.417H100Z" fill="black"/>
<path d="M93.7873 174.694C93.7658 174.743 93.6863 174.758 93.6217 174.723C93.5571 174.689 93.5091 174.624 93.5323 174.573C93.5555 174.522 93.6333 174.509 93.6979 174.544C93.7625 174.578 93.8121 174.644 93.7873 174.694Z" fill="black"/>
<path d="M94.1924 175.143C94.1581 175.16 94.1188 175.165 94.0814 175.156C94.0439 175.148 94.0106 175.127 93.987 175.097C93.9225 175.028 93.9092 174.932 93.9589 174.889C94.0086 174.846 94.098 174.866 94.1626 174.935C94.2271 175.004 94.242 175.1 94.1924 175.143Z" fill="black"/>
<path d="M94.5867 175.714C94.5255 175.757 94.4211 175.714 94.3632 175.629C94.3471 175.613 94.3344 175.595 94.3257 175.575C94.317 175.554 94.3125 175.532 94.3125 175.51C94.3125 175.488 94.317 175.466 94.3257 175.446C94.3344 175.425 94.3471 175.407 94.3632 175.392C94.4244 175.35 94.5288 175.392 94.5867 175.476C94.6447 175.56 94.6463 175.672 94.5867 175.714V175.714Z" fill="black"/>
<path d="M95.1217 176.267C95.067 176.328 94.9561 176.312 94.865 176.23C94.7739 176.147 94.7524 176.035 94.8071 175.976C94.8617 175.917 94.9726 175.933 95.067 176.014C95.1614 176.094 95.1796 176.208 95.1217 176.267V176.267Z" fill="black"/>
<path d="M95.8715 176.59C95.8466 176.668 95.734 176.702 95.6214 176.669C95.5088 176.636 95.4343 176.544 95.4559 176.465C95.4774 176.386 95.5916 176.35 95.7059 176.386C95.8202 176.422 95.893 176.51 95.8715 176.59Z" fill="black"/>
<path d="M96.6896 176.646C96.6896 176.727 96.5969 176.796 96.4777 176.797C96.3584 176.799 96.2607 176.733 96.2607 176.652C96.2607 176.572 96.3535 176.503 96.4727 176.501C96.5919 176.499 96.6896 176.564 96.6896 176.646Z" fill="black"/>
<path d="M97.4517 176.519C97.4666 176.6 97.3838 176.684 97.2645 176.704C97.1453 176.724 97.041 176.676 97.0261 176.597C97.0112 176.518 97.0973 176.432 97.2132 176.411C97.3291 176.389 97.4368 176.439 97.4517 176.519Z" fill="black"/>
</g>
<path d="M128.24 168.39C127.67 168.39 127.22 168.89 127.22 169.5C127.22 170.11 127.68 170.61 128.24 170.61C128.81 170.61 129.26 170.11 129.26 169.5C129.27 168.89 128.81 168.39 128.24 168.39ZM131.89 168.39C131.32 168.39 130.87 168.89 130.87 169.5C130.87 170.11 131.33 170.61 131.89 170.61C132.46 170.61 132.91 170.11 132.91 169.5C132.91 168.89 132.46 168.39 131.89 168.39Z" fill="black"/>
<path d="M136.75 160H123.35C122.22 160 121.3 160.92 121.3 162.06V175.58C121.3 176.72 122.22 177.64 123.35 177.64H134.69L134.16 175.79L135.44 176.98L136.65 178.1L138.8 180V162.06C138.8 160.92 137.88 160 136.75 160ZM132.89 173.06C132.89 173.06 132.53 172.63 132.23 172.25C133.54 171.88 134.04 171.06 134.04 171.06C133.63 171.33 133.24 171.52 132.89 171.65C132.39 171.86 131.91 172 131.44 172.08C130.48 172.26 129.6 172.21 128.85 172.07C128.28 171.96 127.79 171.8 127.38 171.64C127.15 171.55 126.9 171.44 126.65 171.3C126.62 171.28 126.59 171.27 126.56 171.25C126.54 171.24 126.53 171.23 126.52 171.22C126.34 171.12 126.24 171.05 126.24 171.05C126.24 171.05 126.72 171.85 127.99 172.23C127.69 172.61 127.32 173.06 127.32 173.06C125.11 172.99 124.27 171.54 124.27 171.54C124.27 168.32 125.71 165.71 125.71 165.71C127.15 164.63 128.52 164.66 128.52 164.66L128.62 164.78C126.82 165.3 125.99 166.09 125.99 166.09C125.99 166.09 126.21 165.97 126.58 165.8C127.65 165.33 128.5 165.2 128.85 165.17C128.91 165.16 128.96 165.15 129.02 165.15C129.63 165.07 130.32 165.05 131.04 165.13C131.99 165.24 133.01 165.52 134.05 166.09C134.05 166.09 133.26 165.34 131.56 164.82L131.7 164.66C131.7 164.66 133.07 164.63 134.51 165.71C134.51 165.71 135.95 168.32 135.95 171.54C135.95 171.54 135.1 172.99 132.89 173.06V173.06Z" fill="black"/>
<defs>
<clipPath id="clip0_866_10831">
<rect width="20" height="20" fill="white" transform="translate(0 160)"/>
</clipPath>
<clipPath id="clip1_866_10831">
<rect width="20" height="20" fill="white" transform="translate(30 160)"/>
</clipPath>
<clipPath id="clip2_866_10831">
<rect width="20" height="20" fill="white" transform="translate(60 160)"/>
</clipPath>
<clipPath id="clip3_866_10831">
<rect width="20" height="20" fill="white" transform="translate(90 160)"/>
</clipPath>
</defs>
</svg>
